<?xml version="1.0" encoding="UTF-8"?><svg id="Layer_2" xmlns="http://www.w3.org/2000/svg" viewBox="0 0 492.334 281"><defs><style>.cls-1{fill:none;stroke:#4c4c4c;stroke-linecap:round;stroke-linejoin:round;stroke-width:12px;}.cls-2{fill:#ffb522;}</style></defs><g id="Layer_1-2"><path class="cls-1" d="M246,252.1667v11.7493c0,6.1215-4.9625,11.084-11.084,11.084H17.084c-6.1215,0-11.084-4.9625-11.084-11.084V17.084c0-6.1215,4.9625-11.084,11.084-11.084H234.916c6.1215,0,11.084,4.9625,11.084,11.084V96.9427"/><g><path class="cls-2" d="M60.8213,233.4816l-16.7061-16.7061v-18.856h21.1719v10.0894l4.6318,4.6318h33.0811l4.6309-4.6318v-17.3672l-4.6309-4.6313H60.8213l-16.7061-16.7061v-34.9004l16.7061-16.7061h51.2754l16.7061,16.7061v18.856h-21.1719v-10.0898l-4.6309-4.6309h-33.0811l-4.6318,4.6309v17.3677l4.6318,4.6313h42.1777l16.7061,16.7061v34.9004l-16.7061,16.7061H60.8213Z"/><path class="cls-2" d="M156.0928,233.4816l-16.7061-16.7061v-82.3716l16.7061-16.7061h51.2754l16.7061,16.7061v20.0142h-21.1719v-11.248l-4.6309-4.6309h-33.0811l-4.6318,4.6309v64.8389l4.6318,4.6318h33.0811l4.6309-4.6318v-11.2471h21.1719v20.0137l-16.7061,16.7061h-51.2754Z"/><path class="cls-2" d="M298.6357,233.4816v-31.0962h-42.3438v31.0962h-21.1719v-82.3721l33.4121-33.4116h17.8633l33.4121,33.4116v82.3721h-21.1719Zm0-73.6055l-21.1719-21.1719-21.1719,21.1719v21.668h42.3438v-21.668Z"/><path class="cls-2" d="M332.3428,233.4816V117.6979h21.1719v94.9429h50.2832v20.8408h-71.4551Z"/><path class="cls-2" d="M411.7842,233.4816V117.6979h78.0713v20.8413h-56.8994v27.126h40.3584v19.8486h-40.3584v27.127h56.8994v20.8408h-78.0713Z"/></g><g><path class="cls-2" d="M43.0605,96.9425V46.1535h9.2871v41.647h22.0566v9.1421h-31.3438Z"/><path class="cls-2" d="M86.8828,96.9425l-7.3281-7.3281V53.4816l7.3281-7.3281h22.4922l7.3281,7.3281v36.1328l-7.3281,7.3281h-22.4922Zm20.5332-39.6152l-2.0322-2.0317h-14.5107l-2.0312,2.0317v28.4419l2.0312,2.0312h14.5107l2.0322-2.0312v-28.4419Z"/><path class="cls-2" d="M131.1836,96.9425l-7.3281-7.3281V53.4816l7.3281-7.3281h22.4922l7.3281,7.3281v8.7793h-9.2871v-4.9336l-2.0322-2.0317h-14.5107l-2.0312,2.0317v28.4419l2.0312,2.0312h16.543v-9.7949h-7.2559v-8.6343h16.543v27.5713h-29.8203Z"/><path class="cls-2" d="M175.4844,96.9425l-7.3281-7.3281V53.4816l7.3281-7.3281h22.4922l7.3281,7.3281v36.1328l-7.3281,7.3281h-22.4922Zm20.5332-39.6152l-2.0322-2.0317h-14.5107l-2.0312,2.0317v28.4419l2.0312,2.0312h14.5107l2.0322-2.0312v-28.4419Z"/></g></g></svg>